G04 EAGLE Gerber RS-274X export*
G75*
%MOIN*%
%FSLAX36Y36*%
%LPD*%
%INBottom Copper Layer*%
%IPPOS*%
%AMOC8*
5,1,8,0,0,1.08239X$1,22.5*%
G01*
%ADD10R,0.070866X0.062992*%
%ADD11R,0.074000X0.074000*%
%ADD12C,0.074000*%
%ADD13R,0.062992X0.070984*%
%ADD14R,0.047236X0.011811*%
%ADD15R,0.047622X0.047622*%
%ADD16R,0.078740X0.074803*%
%ADD17R,0.011811X0.029528*%
%ADD18R,0.029528X0.011811*%
%ADD19R,0.112205X0.112205*%
%ADD20R,0.086614X0.033465*%
%ADD21R,0.054724X0.035827*%
%ADD22R,0.056299X0.037008*%
%ADD23C,0.076000*%
%ADD24C,0.040000*%
%ADD25C,0.006000*%
%ADD26C,0.010000*%
%ADD27C,0.030000*%
%ADD28C,0.020000*%
%ADD29C,0.015000*%


D10*
X1050000Y2364882D03*
X1050000Y2475118D03*
D11*
X1675000Y2610000D03*
D12*
X1775000Y2600000D03*
X1875000Y2610000D03*
X1975000Y2600000D03*
D13*
X1644016Y2390000D03*
X1755984Y2390000D03*
D14*
X894173Y2474846D03*
X894173Y2500437D03*
X894173Y2526024D03*
X894173Y2551614D03*
X894173Y2577205D03*
X894173Y2602795D03*
X894173Y2628386D03*
X894173Y2653976D03*
X665823Y2474846D03*
X665823Y2500437D03*
X665823Y2526024D03*
X665823Y2551614D03*
X665823Y2577205D03*
X665823Y2602795D03*
X665823Y2628386D03*
X665823Y2653976D03*
X665823Y2679567D03*
X665823Y2705154D03*
X894173Y2679567D03*
X894173Y2705154D03*
D15*
X1480000Y1380000D03*
X1380000Y1280000D03*
X1280000Y1380000D03*
D11*
X2660000Y1005000D03*
D12*
X2670000Y1105000D03*
X2660000Y1205000D03*
X2670000Y1305000D03*
D16*
X651339Y1966575D03*
X651339Y1863425D03*
D17*
X795630Y228740D03*
X815315Y228740D03*
X835000Y228740D03*
X854685Y228740D03*
X874370Y228740D03*
D18*
X913740Y189370D03*
X913740Y169685D03*
X913740Y150000D03*
X913740Y130315D03*
X913740Y110630D03*
D17*
X874370Y71260D03*
X854685Y71260D03*
X835000Y71260D03*
X815315Y71260D03*
X795630Y71260D03*
D18*
X756260Y110630D03*
X756260Y130315D03*
X756260Y150000D03*
X756260Y169685D03*
X756260Y189370D03*
D19*
X835000Y150000D03*
D20*
X510000Y235354D03*
X510000Y154646D03*
D21*
X1120000Y267283D03*
X1120000Y202717D03*
X1040000Y267283D03*
X1040000Y202717D03*
D22*
X1250000Y127283D03*
X1250000Y62717D03*
X1330000Y127283D03*
X1330000Y62717D03*
D23*
X1611575Y244961D03*
X1710000Y244961D03*
X1808425Y244961D03*
X1611575Y115039D03*
X1710000Y115039D03*
X1808425Y115039D03*
D11*
X150000Y675000D03*
D12*
X160000Y775000D03*
X150000Y875000D03*
X160000Y975000D03*
X150000Y1075000D03*
X160000Y1175000D03*
D11*
X2155000Y160000D03*
D12*
X2055000Y170000D03*
D24*
X630000Y2410000D03*
D25*
X650000Y2410000D01*
X860000Y2350000D02*
X890000Y2320000D01*
X945000Y2320000D01*
X950000Y2325000D01*
D24*
X950000Y2325000D03*
D25*
X710000Y2350000D02*
X650000Y2410000D01*
X710000Y2350000D02*
X860000Y2350000D01*
D24*
X625000Y2350000D03*
D25*
X645000Y2330000D02*
X800000Y2330000D01*
X645000Y2330000D02*
X625000Y2350000D01*
X800000Y2330000D02*
X860000Y2270000D01*
X980000Y2270000D01*
X1005000Y2295000D01*
D24*
X1005000Y2295000D03*
D25*
X637901Y1685000D02*
X250000Y1685000D01*
X637901Y1685000D02*
X1054785Y2101884D01*
X1718116Y2101884D01*
D24*
X250000Y1685000D03*
X2545000Y2360000D03*
D25*
X2547500Y2357500D01*
X2545000Y2355000D01*
X2545000Y2250000D01*
X1885000Y1935000D02*
X1718116Y2101884D01*
X1885000Y1935000D02*
X2515000Y1935000D01*
X2550000Y1970000D01*
X2550000Y2245000D01*
X2545000Y2250000D01*
X155000Y2280000D02*
X155000Y1690000D01*
D24*
X240000Y1530000D03*
D25*
X185000Y1530000D01*
X745000Y2210000D02*
X745000Y2270000D01*
X745000Y2210000D02*
X2045000Y2210000D01*
D24*
X2490000Y2300000D03*
D25*
X185000Y1690000D02*
X185000Y1530000D01*
X185000Y1690000D02*
X155000Y1690000D01*
X285000Y2360000D02*
X410000Y2360000D01*
X500000Y2270000D01*
X2045000Y2210000D02*
X2180000Y2075000D01*
X2480000Y2075000D02*
X2490000Y2085000D01*
X2480000Y2075000D02*
X2180000Y2075000D01*
X2490000Y2085000D02*
X2490000Y2300000D01*
X285000Y2360000D02*
X205000Y2280000D01*
X155000Y2280000D01*
X680000Y2270000D02*
X745000Y2270000D01*
X680000Y2270000D02*
X675000Y2265000D01*
X675000Y2215000D01*
X500000Y2215000D01*
X500000Y2270000D01*
D26*
X894173Y2474846D02*
X1049728Y2474846D01*
D27*
X1050000Y2475118D01*
D24*
X1380000Y2475000D03*
D27*
X1124882Y2475118D02*
X1050000Y2475118D01*
X1125000Y2475000D02*
X1380000Y2475000D01*
X1125000Y2475000D02*
X1124882Y2475118D01*
X1675000Y2500000D02*
X1675000Y2610000D01*
D24*
X1675000Y2500000D03*
X1975000Y2490000D03*
D27*
X1975000Y2305000D01*
D24*
X1975000Y2305000D03*
X365000Y1060000D03*
X975000Y2144693D03*
X1250000Y260000D03*
D27*
X445000Y25000D02*
X370000Y100000D01*
D24*
X370000Y100000D03*
D27*
X947606Y2144693D02*
X975000Y2144693D01*
X947606Y2144693D02*
X666339Y1863425D01*
X651339Y1863425D01*
D24*
X230000Y1455000D03*
D27*
X365000Y1320000D01*
X365000Y1060000D01*
X1250000Y127283D02*
X1330000Y127283D01*
D24*
X780000Y276000D03*
D26*
X832220Y248060D02*
X832220Y231520D01*
X835000Y228740D01*
X804281Y276000D02*
X780000Y276000D01*
X804281Y276000D02*
X832220Y248060D01*
D27*
X1120000Y267283D02*
X1242717Y267283D01*
X1250000Y260000D01*
X1120000Y267283D02*
X1040000Y267283D01*
D28*
X812352Y25000D02*
X445000Y25000D01*
X812352Y25000D02*
X835000Y47648D01*
D26*
X835000Y71260D01*
D28*
X1244937Y122220D02*
X1250000Y127283D01*
X1089088Y25000D02*
X812352Y25000D01*
X1089088Y25000D02*
X1186309Y122220D01*
X1244937Y122220D01*
D27*
X1050000Y2240000D02*
X1630000Y2240000D01*
X1465000Y395000D02*
X1470000Y390000D01*
X1465000Y395000D02*
X675000Y395000D01*
X1470000Y390000D02*
X1595000Y390000D01*
X2310000Y390000D01*
D24*
X2310000Y1215000D03*
D27*
X2310000Y830000D01*
X2310000Y390000D01*
D24*
X1940000Y835000D03*
D27*
X2305000Y835000D01*
X2310000Y830000D01*
D24*
X555000Y745000D03*
D27*
X1014998Y745000D01*
X1115389Y644609D01*
X1749609Y644609D01*
X1940000Y835000D01*
X2100000Y2240000D02*
X1630000Y2240000D01*
X1618898Y2364882D02*
X1050000Y2364882D01*
X1618898Y2364882D02*
X1642008Y2387992D01*
D24*
X1630000Y2240000D03*
D27*
X1775000Y2465000D02*
X1775000Y2600000D01*
X1775000Y2465000D02*
X1765000Y2455000D01*
X1645000Y2455000D01*
X1642008Y2452008D01*
X1642008Y2387992D01*
X1050000Y2240000D02*
X825000Y2240000D01*
X2225000Y50000D02*
X2615000Y50000D01*
X2665000Y100000D01*
X2665000Y875000D01*
X2650000Y890000D01*
X2595000Y890000D01*
X2590000Y895000D01*
X2590000Y1505000D01*
X2660000Y1505000D01*
X2660000Y1655000D01*
X2600000Y1715000D01*
X2110000Y1715000D01*
X2025000Y1800000D01*
X2025000Y1850000D01*
D24*
X2025000Y1850000D03*
X1910000Y2050000D03*
D27*
X1910000Y2080000D01*
X1820000Y2170000D01*
D24*
X1820000Y2170000D03*
X1715000Y2300000D03*
D27*
X1670000Y2300000D01*
X1670000Y2360000D01*
X1645000Y2385000D01*
X1642008Y2387992D01*
D24*
X1595000Y390000D03*
X675000Y395000D03*
X2480000Y1455000D03*
D27*
X2475000Y1450000D01*
X2310000Y1450000D01*
X2310000Y1215000D01*
X2210000Y2130000D02*
X2100000Y2240000D01*
X2210000Y2130000D02*
X2210000Y2120000D01*
X2435000Y2120000D01*
D24*
X2435000Y2120000D03*
X625000Y2250000D03*
D27*
X625000Y2300000D01*
X765000Y2300000D01*
X825000Y2240000D01*
X1050000Y2240000D02*
X1050000Y2364882D01*
X625000Y2300000D02*
X510000Y2300000D01*
X510000Y2470000D01*
X514846Y2474846D01*
D26*
X665823Y2474846D01*
D24*
X2310000Y390000D03*
D27*
X1330000Y62717D02*
X1250000Y62717D01*
X1645000Y2389016D02*
X1644016Y2390000D01*
X1645000Y2389016D02*
X1645000Y2385000D01*
X1527283Y62717D02*
X1330000Y62717D01*
X1527283Y62717D02*
X1555000Y35000D01*
X2210000Y35000D01*
X2225000Y50000D01*
D28*
X717333Y115000D02*
X715496Y115000D01*
X715496Y108097D01*
D27*
X685000Y84504D02*
X685000Y75000D01*
X685000Y84504D02*
X715496Y115000D01*
D24*
X685000Y75000D03*
X1145000Y30000D03*
D27*
X1217283Y30000D01*
X1250000Y62717D01*
D29*
X756260Y130315D02*
X756260Y132535D01*
X756260Y150000D01*
X756260Y169685D01*
X756260Y189370D01*
D28*
X756260Y132535D02*
X734869Y132535D01*
X717333Y115000D01*
D26*
X759236Y71260D02*
X795630Y71260D01*
X759236Y71260D02*
X715496Y115000D01*
D25*
X894173Y2551614D02*
X1271614Y2551614D01*
X1280000Y2560000D01*
X1280000Y2675000D01*
X1975000Y2675000D01*
X1975000Y2600000D01*
X1180000Y2600000D02*
X1180000Y2725000D01*
X1180000Y2600000D02*
X1157205Y2577205D01*
X894173Y2577205D01*
X1870000Y2390000D02*
X1875000Y2395000D01*
X1870000Y2390000D02*
X1755984Y2390000D01*
X1875000Y2525000D02*
X1875000Y2610000D01*
X1875000Y2525000D02*
X1875000Y2395000D01*
X2060000Y2725000D02*
X1180000Y2725000D01*
X2060000Y2725000D02*
X2060000Y2535000D01*
X2050000Y2525000D01*
X1875000Y2525000D01*
D24*
X661141Y1597028D03*
X987921Y1591261D03*
D25*
X642172Y1234826D02*
X676315Y1128509D01*
X676315Y1127787D01*
X701504Y1102598D01*
X788422Y1102598D02*
X900382Y1143350D01*
X642172Y1234826D02*
X642172Y1555805D01*
X701504Y1102598D02*
X788422Y1102598D01*
X661141Y1574774D02*
X661141Y1597028D01*
X661141Y1574774D02*
X642172Y1555805D01*
X987921Y1591261D02*
X987921Y1511406D01*
X1077055Y1422273D01*
X1077055Y1320023D02*
X900382Y1143350D01*
X1077055Y1320023D02*
X1077055Y1422273D01*
D24*
X2093397Y1594993D03*
D25*
X2094017Y1217236D02*
X2077465Y1165692D01*
X2077465Y1127787D01*
X2052276Y1102598D01*
X1965358Y1102598D02*
X1954772Y1113184D01*
X1867546Y1144933D01*
X1831814Y1144933D01*
X2111607Y1234826D02*
X2111607Y1555805D01*
X2111607Y1234826D02*
X2094017Y1217236D01*
X2052276Y1102598D02*
X1965358Y1102598D01*
X2093397Y1574015D02*
X2093397Y1594993D01*
X2093397Y1574015D02*
X2111607Y1555805D01*
X1831814Y1144933D02*
X1672945Y1303803D01*
X1672945Y1422273D01*
X1765000Y1514328D01*
X1765000Y1595000D01*
X1764609Y1595000D01*
X1764259Y1594650D01*
D24*
X1764259Y1594650D03*
X210000Y525000D03*
X2545000Y1595000D03*
D25*
X2545000Y330000D01*
X60000Y330000D02*
X60000Y525000D01*
X210000Y525000D01*
X60000Y330000D02*
X2545000Y330000D01*
D24*
X2480000Y1375000D03*
D25*
X2480000Y350000D01*
D24*
X180000Y455000D03*
D25*
X295000Y390000D02*
X295000Y350000D01*
X295000Y390000D02*
X260000Y425000D01*
X180000Y425000D01*
X180000Y455000D01*
X295000Y350000D02*
X2480000Y350000D01*
X940264Y1101444D02*
X936382Y1097563D01*
X841159Y1017661D01*
X837670Y1017661D01*
X772481Y952473D01*
X940264Y1101444D02*
X1201444Y1101444D01*
X772481Y952473D02*
X772481Y825000D01*
X105000Y825000D01*
X285437Y2500437D02*
X665823Y2500437D01*
X52655Y877345D02*
X105000Y825000D01*
X52655Y877345D02*
X52655Y2267655D01*
X285437Y2500437D01*
X1380000Y1280000D02*
X1201444Y1101444D01*
D24*
X925000Y2375000D03*
X895000Y2180000D03*
D25*
X864764Y2180000D02*
X651339Y1966575D01*
X864764Y2180000D02*
X895000Y2180000D01*
X840000Y2470000D02*
X840000Y2700000D01*
X840000Y2470000D02*
X925000Y2375000D01*
X840000Y2700000D02*
X720000Y2700000D01*
X720000Y2655000D01*
X718976Y2653976D01*
X665823Y2653976D01*
X854685Y235000D02*
X854685Y228740D01*
X660354Y235354D02*
X510000Y235354D01*
X660354Y235354D02*
X730000Y305000D01*
X875000Y305000D01*
X880000Y300000D01*
X859465Y247232D02*
X859465Y239780D01*
X854685Y235000D01*
X880000Y267767D02*
X880000Y300000D01*
X880000Y267767D02*
X859465Y247232D01*
X664646Y154646D02*
X510000Y154646D01*
X664646Y154646D02*
X745000Y235000D01*
X789370Y235000D01*
X795630Y228740D01*
X715000Y2420000D02*
X715000Y2526024D01*
D24*
X715000Y2420000D03*
D25*
X140000Y2310000D02*
X77288Y2247288D01*
X665823Y2526024D02*
X715000Y2526024D01*
X77288Y2247288D02*
X77288Y1257288D01*
D24*
X355000Y2455000D03*
D25*
X320000Y2455000D01*
X175000Y2310000D02*
X140000Y2310000D01*
X175000Y2310000D02*
X320000Y2455000D01*
D26*
X77288Y1257288D02*
X159576Y1175000D01*
X160000Y1175000D01*
D25*
X665823Y2577205D02*
X772795Y2577205D01*
X781000Y2569000D01*
X781000Y2395000D01*
D24*
X781000Y2395000D03*
X710000Y2180000D03*
D25*
X235000Y2180000D01*
X190000Y2225000D01*
D24*
X190000Y2225000D03*
X850000Y2400000D03*
X795000Y2180000D03*
D25*
X700000Y2085000D02*
X665000Y2085000D01*
X700000Y2085000D02*
X795000Y2180000D01*
D24*
X665000Y2085000D03*
X150000Y1520000D03*
D25*
X150000Y1435000D01*
X225000Y1360000D01*
D24*
X225000Y1360000D03*
D25*
X805000Y2445000D02*
X805000Y2450000D01*
X805000Y2445000D02*
X850000Y2400000D01*
X810000Y2440714D02*
X805000Y2450000D01*
X810000Y2440714D02*
X810000Y2625000D01*
X806614Y2628386D01*
X665823Y2628386D01*
X894173Y2628386D02*
X943386Y2628386D01*
X975000Y2660000D01*
X975000Y2670000D01*
D24*
X975000Y2670000D03*
D25*
X997795Y2602795D02*
X894173Y2602795D01*
X997795Y2602795D02*
X1055000Y2660000D01*
D24*
X1055000Y2660000D03*
D27*
X1770039Y305000D02*
X1710000Y244961D01*
X1770039Y305000D02*
X1865000Y305000D01*
D25*
X1710000Y244961D02*
X1710000Y115039D01*
D27*
X2000000Y170000D02*
X2055000Y170000D01*
X2000000Y170000D02*
X1865000Y305000D01*
X1120000Y202717D02*
X1040000Y202717D01*
X1120000Y202717D02*
X1569331Y202717D01*
X1611575Y244961D01*
D26*
X874370Y71260D02*
X854685Y71260D01*
X874370Y71260D02*
X906260Y71260D01*
X920000Y85000D01*
X920000Y104370D01*
X913740Y110630D01*
D27*
X913740Y130315D01*
X913740Y150000D01*
X913740Y169685D01*
X913740Y189370D02*
X927087Y202717D01*
X1040000Y202717D01*
D28*
X1611575Y244961D02*
X1611575Y115039D01*
D27*
X913740Y169685D02*
X913740Y189370D01*
D24*
X520000Y2545000D03*
D26*
X526614Y2551614D01*
X665823Y2551614D01*
D24*
X375000Y2590000D03*
D26*
X657138Y2594110D02*
X665823Y2602795D01*
X657138Y2594110D02*
X637648Y2594110D01*
X633538Y2590000D01*
X375000Y2590000D01*
M02*
