M48
;GenerationSoftware,Autodesk,EAGLE,9.6.2*%
;CreationDate,2022-04-23T15:45:40Z*%
FMAT,2
ICI,OFF
INCH,TZ,00.0000
T5C0.0200
T4C0.0236
T3C0.0394
T2C0.0400
T1C0.1181
%
G90
M72
T1
X25600Y2000
X13750Y9850
X9750Y13800
X13750Y17850
X17750Y13800
X25600Y25600
X2000Y25600
X2000Y2000
T2
X20550Y1700
X16750Y26100
X17750Y26000
X18750Y26100
X19750Y26000
X1500Y10750
X1600Y11750
X21550Y1600
X26600Y10050
X26700Y11050
X26600Y12050
X26700Y13050
X1500Y6750
X1600Y7750
X1500Y8750
X1600Y9750
T3
X16116Y1150
X17100Y1150
X18084Y1150
X16116Y2450
X17100Y2450
X18084Y2450
T4
X14800Y13800
X13800Y12800
X12800Y13800
T5
X11450Y300
X6611Y15970
X9879Y15913
X20934Y15950
X17643Y15947
X2100Y5250
X25450Y15950
X24800Y13750
X1800Y4550
X9250Y23750
X8950Y21800
X7150Y24200
X19750Y23050
X7810Y23950
X7100Y21800
X1900Y22250
X8500Y24000
X7950Y21800
X6650Y20850
X1500Y15200
X2250Y13600
X9750Y26700
X10550Y26600
X5200Y25450
X3750Y25900
X6300Y24100
X9500Y23250
X6250Y23500
X10050Y22950
X2500Y16850
X25450Y23600
X2400Y15300
X24900Y23000
X13800Y24750
X16750Y25000
X19750Y24900
X3650Y10600
X9750Y21447
X12500Y2600
X3700Y1000
X2300Y14550
X7800Y2760
X23100Y12150
X19400Y8350
X5550Y7450
X16300Y22400
X3550Y24550
X20250Y18500
X19100Y20500
X18200Y21700
X17150Y23000
X15950Y3900
X6750Y3950
X24800Y14550
X24350Y21200
X6250Y22500
X23100Y3900
X6850Y750
M30