G04 EAGLE Gerber RS-274X export*
G75*
%MOIN*%
%FSLAX36Y36*%
%LPD*%
%INTop Copper Layer*%
%IPPOS*%
%AMOC8*
5,1,8,0,0,1.08239X$1,22.5*%
G01*
%ADD10R,0.074000X0.074000*%
%ADD11C,0.074000*%
%ADD12R,0.090551X0.043307*%
%ADD13R,0.047622X0.047622*%
%ADD14C,0.006000*%
%ADD15C,0.040000*%
%ADD16C,0.030000*%
%ADD17C,0.032000*%
%ADD18C,0.010000*%


D10*
X1675000Y2610000D03*
D11*
X1775000Y2600000D03*
X1875000Y2610000D03*
X1975000Y2600000D03*
D12*
X544646Y2233071D03*
X544646Y2300000D03*
X544646Y2366929D03*
X375354Y2366929D03*
X375354Y2300000D03*
X375354Y2233071D03*
X1464646Y2233071D03*
X1464646Y2300000D03*
X1464646Y2366929D03*
X1295354Y2366929D03*
X1295354Y2300000D03*
X1295354Y2233071D03*
X2384646Y2233071D03*
X2384646Y2300000D03*
X2384646Y2366929D03*
X2215354Y2366929D03*
X2215354Y2300000D03*
X2215354Y2233071D03*
X544646Y1313071D03*
X544646Y1380000D03*
X544646Y1446929D03*
X375354Y1446929D03*
X375354Y1380000D03*
X375354Y1313071D03*
X1464646Y1463071D03*
X1464646Y1530000D03*
X1464646Y1596929D03*
X1295354Y1596929D03*
X1295354Y1530000D03*
X1295354Y1463071D03*
X2384646Y1313071D03*
X2384646Y1380000D03*
X2384646Y1446929D03*
X2215354Y1446929D03*
X2215354Y1380000D03*
X2215354Y1313071D03*
X544646Y393071D03*
X544646Y460000D03*
X544646Y526929D03*
X375354Y526929D03*
X375354Y460000D03*
X375354Y393071D03*
X1464646Y393071D03*
X1464646Y460000D03*
X1464646Y526929D03*
X1295354Y526929D03*
X1295354Y460000D03*
X1295354Y393071D03*
X2384646Y393071D03*
X2384646Y460000D03*
X2384646Y526929D03*
X2215354Y526929D03*
X2215354Y460000D03*
X2215354Y393071D03*
D13*
X1480000Y1380000D03*
X1380000Y1280000D03*
X1280000Y1380000D03*
D10*
X2660000Y1005000D03*
D11*
X2670000Y1105000D03*
X2660000Y1205000D03*
X2670000Y1305000D03*
D10*
X135000Y1015000D03*
D11*
X145000Y1115000D03*
X135000Y1215000D03*
X145000Y1315000D03*
D14*
X544646Y2366929D02*
X586929Y2366929D01*
X630000Y2410000D01*
D15*
X630000Y2410000D03*
X950000Y2325000D03*
D14*
X1155000Y2325000D01*
X1196929Y2366929D02*
X1295354Y2366929D01*
X1196929Y2366929D02*
X1155000Y2325000D01*
X575000Y2300000D02*
X544646Y2300000D01*
X575000Y2300000D02*
X625000Y2350000D01*
D15*
X625000Y2350000D03*
X1005000Y2295000D03*
D14*
X1290354Y2295000D01*
X1295354Y2300000D01*
X1464646Y2366929D02*
X1532717Y2435000D01*
X2147283Y2435000D02*
X2215354Y2366929D01*
X2147283Y2435000D02*
X1532717Y2435000D01*
X1550000Y2300000D02*
X1464646Y2300000D01*
X1550000Y2300000D02*
X1620000Y2370000D01*
X2085000Y2370000D01*
X2155000Y2300000D02*
X2215354Y2300000D01*
X2155000Y2300000D02*
X2085000Y2370000D01*
D15*
X250000Y1685000D03*
D14*
X250000Y1600000D01*
X245000Y1595000D01*
X363425Y1595000D01*
D15*
X2545000Y2360000D03*
D14*
X375354Y1583071D02*
X363425Y1595000D01*
X375354Y1583071D02*
X375354Y1446929D01*
X2384646Y2366929D02*
X2538071Y2366929D01*
X2545000Y2360000D01*
D15*
X240000Y1530000D03*
X2490000Y2300000D03*
D14*
X375354Y1380000D02*
X300000Y1380000D01*
X295000Y1385000D01*
X295000Y1535000D01*
X245000Y1535000D01*
X240000Y1530000D01*
X2384646Y2300000D02*
X2490000Y2300000D01*
D16*
X2040000Y2120000D02*
X1345000Y2120000D01*
X370000Y345000D02*
X370000Y340000D01*
X370000Y345000D02*
X370000Y387717D01*
X103890Y1529896D02*
X100000Y1533785D01*
X100000Y2140000D01*
X103890Y1529896D02*
X103890Y1471110D01*
X2705000Y960000D02*
X2705000Y340000D01*
X2705000Y960000D02*
X2660000Y1005000D01*
X2215354Y1313071D02*
X2225903Y640000D01*
X1001444Y1101444D02*
X940264Y1101444D01*
X840415Y1017661D01*
X837670Y1017661D01*
X805000Y984992D01*
X805000Y680000D01*
X825000Y680000D02*
X825000Y640000D01*
X2225903Y640000D01*
X825000Y680000D02*
X805000Y680000D01*
X365000Y680000D01*
X43000Y680000D01*
D15*
X1675000Y2500000D03*
D16*
X2125000Y2500000D01*
D15*
X2125000Y2500000D03*
X1975000Y2305000D03*
D16*
X2040000Y2240000D01*
X2040000Y2120000D01*
X2216762Y2151762D02*
X2215354Y2233071D01*
X2216762Y2151762D02*
X2185000Y2120000D01*
X2040000Y2120000D01*
D15*
X365000Y1060000D03*
D16*
X365000Y680000D01*
X269307Y2140000D02*
X100000Y2140000D01*
X269307Y2140000D02*
X274000Y2144693D01*
X295000Y2134693D02*
X965000Y2134693D01*
X995000Y2134693D02*
X1274693Y2134693D01*
X43000Y680000D02*
X43000Y460000D01*
X1300000Y340000D02*
X2225000Y340000D01*
X1300000Y340000D02*
X375000Y340000D01*
X370000Y340000D01*
X375000Y340000D02*
X370000Y345000D01*
X370000Y340000D02*
X163000Y340000D01*
X43000Y460000D01*
X2225000Y340000D02*
X2705000Y340000D01*
X285000Y2144693D02*
X274000Y2144693D01*
X1295354Y393071D02*
X1300000Y388425D01*
X1300000Y340000D01*
X375354Y393071D02*
X370000Y387717D01*
X2215354Y393071D02*
X2225000Y383425D01*
X2225000Y340000D01*
X295000Y1315000D02*
X195000Y1415000D01*
X296929Y1313071D02*
X365000Y1245000D01*
X195000Y1415000D02*
X160000Y1415000D01*
D15*
X365000Y1245000D03*
D16*
X160000Y1415000D02*
X103890Y1471110D01*
X1295354Y2155354D02*
X1295354Y2233071D01*
X1295354Y2155354D02*
X1274693Y2134693D01*
X1295354Y2155354D02*
X1309646Y2155354D01*
X1345000Y2120000D01*
X295000Y2134693D02*
X285000Y2144693D01*
X280000Y2149693D01*
X280000Y2230000D01*
X283071Y2233071D01*
X375354Y2233071D01*
X1295354Y1463071D02*
X1295354Y1395354D01*
X1280000Y1380000D01*
X1001444Y1101444D01*
D17*
X995000Y2134693D02*
X965000Y2134693D01*
D16*
X375354Y1313071D02*
X296929Y1313071D01*
X295000Y1315000D01*
D15*
X2310000Y1215000D03*
D16*
X2700000Y2120000D02*
X2700000Y2225000D01*
X2700000Y2120000D02*
X2700000Y1460000D01*
X2535000Y700000D02*
X2610000Y625000D01*
X2535000Y700000D02*
X2535000Y1105000D01*
X2670000Y1105000D01*
X1464646Y1395354D02*
X1464646Y1463071D01*
D15*
X1940000Y835000D03*
D16*
X1825434Y1091444D02*
X1763556Y1091444D01*
X1825434Y1091444D02*
X1899354Y1029418D01*
X1940000Y988771D01*
X1940000Y835000D01*
X544646Y1160000D02*
X544646Y1313071D01*
X544646Y1160000D02*
X544646Y1029212D01*
X539992Y765008D01*
X555000Y750000D01*
X555000Y745000D01*
D15*
X555000Y745000D03*
X1630000Y2240000D03*
D16*
X1454750Y2240000D01*
X1464646Y2233071D01*
X2610000Y435000D02*
X2565000Y390000D01*
X2610000Y435000D02*
X2610000Y625000D01*
X1591929Y393071D02*
X1464646Y393071D01*
X1591929Y393071D02*
X1595000Y390000D01*
D15*
X1595000Y390000D03*
D16*
X673071Y393071D02*
X544646Y393071D01*
X673071Y393071D02*
X675000Y395000D01*
D15*
X675000Y395000D03*
D16*
X2695000Y1455000D02*
X2700000Y1460000D01*
X2695000Y1455000D02*
X2480000Y1455000D01*
D15*
X2480000Y1455000D03*
D16*
X2384646Y1289646D02*
X2310000Y1215000D01*
X2384646Y1289646D02*
X2384646Y1313071D01*
D15*
X2435000Y2120000D03*
D16*
X2700000Y2120000D01*
X2691929Y2233071D02*
X2384646Y2233071D01*
X2691929Y2233071D02*
X2700000Y2225000D01*
X561575Y2250000D02*
X544646Y2233071D01*
X561575Y2250000D02*
X625000Y2250000D01*
D15*
X625000Y2250000D03*
D16*
X2384646Y393071D02*
X2387717Y390000D01*
X2565000Y390000D01*
D15*
X2310000Y390000D03*
D16*
X2387717Y390000D01*
X1480000Y1380000D02*
X1464646Y1395354D01*
X1480000Y1375000D02*
X1763556Y1091444D01*
X1480000Y1375000D02*
X1480000Y1380000D01*
D17*
X544646Y1160000D02*
X190000Y1160000D01*
X145000Y1115000D01*
D15*
X520000Y2545000D03*
D18*
X324000Y2467841D02*
X324000Y2442159D01*
X324000Y2467841D02*
X342159Y2486000D01*
X461000Y2486000D02*
X520000Y2545000D01*
X461000Y2486000D02*
X342159Y2486000D01*
X375354Y2390805D02*
X375354Y2366929D01*
X375354Y2390805D02*
X324000Y2442159D01*
D15*
X375000Y2590000D03*
D18*
X375000Y2541468D01*
X341079Y2334276D02*
X325522Y2334276D01*
X308000Y2474468D02*
X375000Y2541468D01*
X341079Y2334276D02*
X375354Y2300000D01*
X308000Y2351798D02*
X308000Y2474468D01*
X308000Y2351798D02*
X325522Y2334276D01*
D15*
X661141Y1597028D03*
X987921Y1591261D03*
D14*
X1289686Y1591261D01*
X1295354Y1596929D01*
X661141Y1597028D02*
X557028Y1597028D01*
X544646Y1584646D02*
X544646Y1446929D01*
X544646Y1584646D02*
X557028Y1597028D01*
X641831Y1235168D02*
X676315Y1127787D01*
X701504Y1102598D01*
X788422Y1102598D02*
X900382Y1143350D01*
X788422Y1102598D02*
X701504Y1102598D01*
X1077055Y1517055D02*
X1090000Y1530000D01*
X1077055Y1320023D02*
X900382Y1143350D01*
X1077055Y1320023D02*
X1077055Y1517055D01*
X1090000Y1530000D02*
X1295354Y1530000D01*
X640000Y1380000D02*
X640000Y1236998D01*
X640000Y1380000D02*
X544646Y1380000D01*
X640000Y1236998D02*
X641831Y1235168D01*
D15*
X2093397Y1594993D03*
X1764259Y1594650D03*
D14*
X1466925Y1594650D01*
X1464646Y1596929D01*
X2093397Y1594993D02*
X2210007Y1594993D01*
X2215354Y1589646D02*
X2215354Y1446929D01*
X2215354Y1589646D02*
X2210007Y1594993D01*
X2094017Y1217236D02*
X2077465Y1165692D01*
X2077465Y1127787D01*
X2052276Y1102598D01*
X1965358Y1102598D02*
X1954772Y1113184D01*
X1867546Y1144933D01*
X1831814Y1144933D01*
X2094017Y1217236D02*
X2111607Y1234826D01*
X2052276Y1102598D02*
X1965358Y1102598D01*
X1672945Y1422273D02*
X1765000Y1514328D01*
X1765000Y1530000D01*
X1672945Y1303803D02*
X1831814Y1144933D01*
X1672945Y1303803D02*
X1672945Y1422273D01*
X1765000Y1530000D02*
X1464646Y1530000D01*
X2111607Y1378393D02*
X2111607Y1234826D01*
X2111607Y1378393D02*
X2110000Y1380000D01*
X2215354Y1380000D01*
X2384646Y1446929D02*
X2513071Y1596929D01*
X2515000Y1595000D01*
D15*
X210000Y525000D03*
D14*
X2515000Y1595000D02*
X2545000Y1595000D01*
D15*
X2545000Y1595000D03*
D14*
X211929Y526929D02*
X210000Y525000D01*
X211929Y526929D02*
X375354Y526929D01*
X2472881Y1380000D02*
X2480000Y1375000D01*
X2472881Y1380000D02*
X2384646Y1380000D01*
D15*
X2480000Y1375000D03*
X180000Y455000D03*
D14*
X370354Y455000D01*
X375354Y460000D01*
X544646Y526929D02*
X1295354Y526929D01*
X1295354Y460000D02*
X544646Y460000D01*
X1464646Y526929D02*
X2215354Y526929D01*
X2215354Y460000D02*
X1464646Y460000D01*
X2485000Y1300000D02*
X2665000Y1300000D01*
X2670000Y1305000D01*
X2384646Y1210000D02*
X2384646Y526929D01*
X2384646Y1210000D02*
X2474646Y1300000D01*
X2485000Y1300000D01*
X2455000Y1210000D02*
X2455000Y695000D01*
X2455000Y1210000D02*
X2680000Y1210000D01*
X2675000Y1205000D01*
X2660000Y1205000D01*
X2455000Y695000D02*
X2535000Y615000D01*
X2535000Y460000D02*
X2384646Y460000D01*
X2535000Y460000D02*
X2535000Y615000D01*
M02*
