G04 EAGLE Gerber RS-274X export*
G75*
%MOIN*%
%FSLAX36Y36*%
%LPD*%
%INBottom Copper Layer*%
%IPPOS*%
%AMOC8*
5,1,8,0,0,1.08239X$1,22.5*%
G01*
%ADD10R,0.074000X0.074000*%
%ADD11C,0.074000*%
%ADD12R,0.047622X0.047622*%
%ADD13C,0.040000*%
%ADD14C,0.006000*%
%ADD15C,0.030000*%
%ADD16C,0.032000*%
%ADD17C,0.010000*%


D10*
X1675000Y2610000D03*
D11*
X1775000Y2600000D03*
X1875000Y2610000D03*
X1975000Y2600000D03*
D12*
X1480000Y1380000D03*
X1380000Y1280000D03*
X1280000Y1380000D03*
D10*
X2660000Y1005000D03*
D11*
X2670000Y1105000D03*
X2660000Y1205000D03*
X2670000Y1305000D03*
D10*
X135000Y1015000D03*
D11*
X145000Y1115000D03*
X135000Y1215000D03*
X145000Y1315000D03*
D13*
X630000Y2410000D03*
D14*
X650000Y2410000D01*
X860000Y2350000D02*
X890000Y2320000D01*
X945000Y2320000D01*
X950000Y2325000D01*
D13*
X950000Y2325000D03*
D14*
X710000Y2350000D02*
X650000Y2410000D01*
X710000Y2350000D02*
X860000Y2350000D01*
D13*
X625000Y2350000D03*
D14*
X645000Y2330000D02*
X800000Y2330000D01*
X645000Y2330000D02*
X625000Y2350000D01*
X800000Y2330000D02*
X860000Y2270000D01*
X980000Y2270000D01*
X1005000Y2295000D01*
D13*
X1005000Y2295000D03*
D14*
X637901Y1685000D02*
X250000Y1685000D01*
X637901Y1685000D02*
X1054785Y2101884D01*
X1718116Y2101884D01*
D13*
X250000Y1685000D03*
X2545000Y2360000D03*
D14*
X2547500Y2357500D01*
X2545000Y2355000D01*
X2545000Y2250000D01*
X1885000Y1935000D02*
X1718116Y2101884D01*
X1885000Y1935000D02*
X2515000Y1935000D01*
X2550000Y1970000D01*
X2550000Y2245000D01*
X2545000Y2250000D01*
X155000Y2280000D02*
X155000Y1690000D01*
D13*
X240000Y1530000D03*
D14*
X185000Y1530000D01*
X745000Y2210000D02*
X745000Y2270000D01*
X745000Y2210000D02*
X2045000Y2210000D01*
D13*
X2490000Y2300000D03*
D14*
X185000Y1690000D02*
X185000Y1530000D01*
X185000Y1690000D02*
X155000Y1690000D01*
X285000Y2360000D02*
X410000Y2360000D01*
X500000Y2270000D01*
X2045000Y2210000D02*
X2180000Y2075000D01*
X2480000Y2075000D02*
X2490000Y2085000D01*
X2480000Y2075000D02*
X2180000Y2075000D01*
X2490000Y2085000D02*
X2490000Y2300000D01*
X285000Y2360000D02*
X205000Y2280000D01*
X155000Y2280000D01*
X680000Y2270000D02*
X745000Y2270000D01*
X680000Y2270000D02*
X675000Y2265000D01*
X675000Y2215000D01*
X500000Y2215000D01*
X500000Y2270000D01*
D15*
X1675000Y2500000D02*
X1675000Y2610000D01*
D13*
X1675000Y2500000D03*
X2125000Y2500000D03*
D15*
X2125000Y2455000D01*
X1975000Y2305000D01*
D13*
X1975000Y2305000D03*
X365000Y1060000D03*
X365000Y1245000D03*
D16*
X365000Y1060000D02*
X310000Y1060000D01*
X265000Y1015000D01*
X135000Y1015000D01*
X365000Y1060000D02*
X365000Y1245000D01*
D15*
X825000Y2240000D02*
X1630000Y2240000D01*
X1465000Y395000D02*
X1470000Y390000D01*
X1465000Y395000D02*
X675000Y395000D01*
X1470000Y390000D02*
X1595000Y390000D01*
X2310000Y390000D01*
D13*
X2310000Y1215000D03*
D15*
X2310000Y830000D01*
X2310000Y390000D01*
D13*
X1940000Y835000D03*
D15*
X2305000Y835000D01*
X2310000Y830000D01*
D13*
X555000Y745000D03*
D15*
X1014998Y745000D01*
X1115389Y644609D01*
X1749609Y644609D01*
X1940000Y835000D01*
X2100000Y2240000D02*
X1630000Y2240000D01*
D13*
X1630000Y2240000D03*
D15*
X1775000Y2465000D02*
X1775000Y2600000D01*
X1775000Y2465000D02*
X1765000Y2455000D01*
X1645000Y2455000D01*
X1642008Y2452008D01*
X1642008Y2387992D01*
D13*
X1595000Y390000D03*
X675000Y395000D03*
X2480000Y1455000D03*
D15*
X2475000Y1450000D01*
X2310000Y1450000D01*
X2310000Y1215000D01*
X2210000Y2130000D02*
X2100000Y2240000D01*
X2210000Y2130000D02*
X2210000Y2120000D01*
X2435000Y2120000D01*
D13*
X2435000Y2120000D03*
X625000Y2250000D03*
D15*
X625000Y2300000D01*
X765000Y2300000D01*
X825000Y2240000D01*
D13*
X2310000Y390000D03*
D16*
X1642008Y2252008D02*
X1642008Y2387992D01*
X1642008Y2252008D02*
X1630000Y2240000D01*
D14*
X1975000Y2675000D02*
X1280000Y2675000D01*
X1975000Y2675000D02*
X1975000Y2600000D01*
D13*
X520000Y2545000D03*
D14*
X1150000Y2545000D01*
X1280000Y2675000D01*
X1875000Y2610000D02*
X1875000Y2525000D01*
X2060000Y2725000D02*
X1180000Y2725000D01*
X2060000Y2725000D02*
X2060000Y2535000D01*
X2050000Y2525000D01*
X1875000Y2525000D01*
D13*
X375000Y2590000D03*
D17*
X637648Y2594110D02*
X657138Y2594110D01*
X637648Y2594110D02*
X633538Y2590000D01*
X375000Y2590000D01*
D14*
X657138Y2594110D02*
X1049110Y2594110D01*
X1180000Y2725000D01*
D13*
X661141Y1597028D03*
X987921Y1591261D03*
D14*
X642172Y1234826D02*
X676315Y1128509D01*
X676315Y1127787D01*
X701504Y1102598D01*
X788422Y1102598D02*
X900382Y1143350D01*
X642172Y1234826D02*
X642172Y1555805D01*
X701504Y1102598D02*
X788422Y1102598D01*
X661141Y1574774D02*
X661141Y1597028D01*
X661141Y1574774D02*
X642172Y1555805D01*
X987921Y1591261D02*
X987921Y1511406D01*
X1077055Y1422273D01*
X1077055Y1320023D02*
X900382Y1143350D01*
X1077055Y1320023D02*
X1077055Y1422273D01*
D13*
X2093397Y1594993D03*
D14*
X2094017Y1217236D02*
X2077465Y1165692D01*
X2077465Y1127787D01*
X2052276Y1102598D01*
X1965358Y1102598D02*
X1954772Y1113184D01*
X1867546Y1144933D01*
X1831814Y1144933D01*
X2111607Y1234826D02*
X2111607Y1555805D01*
X2111607Y1234826D02*
X2094017Y1217236D01*
X2052276Y1102598D02*
X1965358Y1102598D01*
X2093397Y1574015D02*
X2093397Y1594993D01*
X2093397Y1574015D02*
X2111607Y1555805D01*
X1831814Y1144933D02*
X1672945Y1303803D01*
X1672945Y1422273D01*
X1765000Y1514328D01*
X1765000Y1595000D01*
X1764609Y1595000D01*
X1764259Y1594650D01*
D13*
X1764259Y1594650D03*
X210000Y525000D03*
X2545000Y1595000D03*
D14*
X2545000Y330000D01*
X60000Y330000D02*
X60000Y525000D01*
X210000Y525000D01*
X60000Y330000D02*
X2545000Y330000D01*
D13*
X2480000Y1375000D03*
D14*
X2480000Y350000D01*
D13*
X180000Y455000D03*
D14*
X295000Y390000D02*
X295000Y350000D01*
X295000Y390000D02*
X260000Y425000D01*
X180000Y425000D01*
X180000Y455000D01*
X295000Y350000D02*
X2480000Y350000D01*
X940264Y1101444D02*
X936382Y1097563D01*
X841159Y1017661D01*
X837670Y1017661D01*
X772481Y952473D01*
X940264Y1101444D02*
X1201444Y1101444D01*
X772481Y952473D02*
X772481Y825000D01*
X105000Y825000D01*
X1201444Y1101444D02*
X1380000Y1280000D01*
X45000Y1305000D02*
X45000Y885000D01*
X45000Y1305000D02*
X55000Y1315000D01*
X145000Y1315000D01*
X45000Y885000D02*
X105000Y825000D01*
M02*
