M48
;GenerationSoftware,Autodesk,EAGLE,9.6.2*%
;CreationDate,2022-04-23T15:42:06Z*%
FMAT,2
ICI,OFF
INCH,TZ,00.0000
T4C0.0200
T3C0.0236
T2C0.0400
T1C0.1181
%
G90
M72
T1
X13750Y17850
X13750Y9850
X9750Y13800
X17750Y13800
X25600Y25600
X2000Y25600
X2000Y2000
X25600Y2000
T2
X26600Y10050
X16750Y26100
X17750Y26000
X18750Y26100
X19750Y26000
X26700Y11050
X26600Y12050
X26700Y13050
X1350Y10150
X1450Y11150
X1350Y12150
X1450Y13150
T3
X14800Y13800
X13800Y12800
X12800Y13800
T4
X5200Y25450
X3750Y25900
X6611Y15970
X9879Y15913
X20934Y15950
X24900Y23000
X2100Y5250
X25450Y15950
X24800Y13750
X1800Y4550
X6300Y24100
X9500Y23250
X17643Y15947
X6250Y23500
X10050Y22950
X2500Y16850
X25450Y23600
X2400Y15300
X16750Y25000
X21250Y25000
X19750Y23050
X3650Y10600
X3650Y12450
X23100Y12150
X19400Y8350
X6250Y22500
X5550Y7450
X16300Y22400
X15950Y3900
X6750Y3950
X24800Y14550
X24350Y21200
X23100Y3900
M30